<svg width="416" height="299" viewBox="0 0 416 299" fill="none" xmlns="http://www.w3.org/2000/svg">
<g opacity="0.3">
<path d="M406.785 236.285H359.736V298.205H406.785V236.285Z" fill="#F5F5F5"/>
<path d="M406.874 236.285H384.811V298.205H406.874V236.285Z" fill="#EBEBEB"/>
<path d="M373.913 244.677H369.66V254.923H373.913V244.677Z" fill="#EBEBEB"/>
<path d="M373.913 284.867H369.66V295.113H373.913V284.867Z" fill="#EBEBEB"/>
<path d="M384.811 258.986C384.811 259.074 379.229 259.163 372.318 259.163C365.407 259.163 359.824 259.074 359.824 258.986C359.824 258.898 365.407 258.809 372.318 258.809C379.14 258.809 384.811 258.898 384.811 258.986Z" fill="#EBEBEB"/>
<path d="M373.913 264.904H369.66V275.151H373.913V264.904Z" fill="#EBEBEB"/>
<path d="M384.811 279.214C384.811 279.302 379.229 279.391 372.318 279.391C365.407 279.391 359.824 279.302 359.824 279.214C359.824 279.126 365.407 279.037 372.318 279.037C379.14 279.037 384.811 279.126 384.811 279.214Z" fill="#EBEBEB"/>
<path d="M393.671 244.677H389.418V254.923H393.671V244.677Z" fill="#E0E0E0"/>
<path d="M402.886 244.677H398.633V254.923H402.886V244.677Z" fill="#E0E0E0"/>
<path d="M393.671 264.198H389.418V274.444H393.671V264.198Z" fill="#E0E0E0"/>
<path d="M402.886 264.198H398.633V274.444H402.886V264.198Z" fill="#E0E0E0"/>
<path d="M393.671 283.63H389.418V293.877H393.671V283.63Z" fill="#E0E0E0"/>
<path d="M402.886 283.63H398.633V293.877H402.886V283.63Z" fill="#E0E0E0"/>
<path d="M410.329 234.165H356.192V236.373H410.329V234.165Z" fill="#E0E0E0"/>
<path d="M407.139 236.638C407.139 236.727 396.595 236.815 383.659 236.815C370.634 236.815 360.179 236.727 360.179 236.638C360.179 236.55 370.723 236.462 383.659 236.462C396.684 236.462 407.139 236.55 407.139 236.638Z" fill="#F5F5F5"/>
<path d="M307.548 79.9394H223.55V299H307.548V79.9394Z" fill="#EBEBEB"/>
<path d="M307.459 79.9394H265.46V299H307.459V79.9394Z" fill="#E0E0E0"/>
<path d="M262.802 53.8818H233.12V79.9394H262.802V53.8818Z" fill="#EBEBEB"/>
<path d="M262.802 53.8818H255.714V79.9394H262.802V53.8818Z" fill="#E0E0E0"/>
<path d="M309.94 78.3495H216.55V79.8511H309.94V78.3495Z" fill="#E0E0E0"/>
<path d="M247.208 91.2458H240.119V106.174H247.208V91.2458Z" fill="white"/>
<path d="M265.46 112.092C265.46 112.269 256.068 112.357 244.461 112.357C232.854 112.357 223.462 112.269 223.462 112.092C223.462 111.915 232.854 111.827 244.461 111.827C256.068 111.739 265.46 111.915 265.46 112.092Z" fill="#E0E0E0"/>
<path d="M289.561 91.2458H282.472V106.174H289.561V91.2458Z" fill="#F5F5F5"/>
<path d="M307.813 112.092C307.813 112.269 298.421 112.357 286.814 112.357C275.207 112.357 265.815 112.269 265.815 112.092C265.815 111.915 275.207 111.827 286.814 111.827C298.421 111.739 307.813 111.915 307.813 112.092Z" fill="#EBEBEB"/>
<path d="M289.561 120.925H282.472V135.853H289.561V120.925Z" fill="#F5F5F5"/>
<path d="M307.813 141.683C307.813 141.859 298.421 141.948 286.814 141.948C275.207 141.948 265.815 141.859 265.815 141.683C265.815 141.506 275.207 141.418 286.814 141.418C298.421 141.418 307.813 141.594 307.813 141.683Z" fill="#EBEBEB"/>
<path d="M289.561 151.487H282.472V166.415H289.561V151.487Z" fill="#F5F5F5"/>
<path d="M307.813 172.245C307.813 172.422 298.421 172.51 286.814 172.51C275.207 172.51 265.815 172.422 265.815 172.245C265.815 172.069 275.207 171.98 286.814 171.98C298.421 171.98 307.813 172.157 307.813 172.245Z" fill="#EBEBEB"/>
<path d="M289.561 182.05H282.472V196.978H289.561V182.05Z" fill="#F5F5F5"/>
<path d="M307.813 202.808C307.813 202.984 298.421 203.073 286.814 203.073C275.207 203.073 265.815 202.984 265.815 202.808C265.815 202.631 275.207 202.543 286.814 202.543C298.421 202.543 307.813 202.631 307.813 202.808Z" fill="#EBEBEB"/>
<path d="M289.561 211.729H282.472V226.657H289.561V211.729Z" fill="#F5F5F5"/>
<path d="M307.813 232.487C307.813 232.664 298.421 232.752 286.814 232.752C275.207 232.752 265.815 232.664 265.815 232.487C265.815 232.31 275.207 232.222 286.814 232.222C298.421 232.222 307.813 232.31 307.813 232.487Z" fill="#EBEBEB"/>
<path d="M289.561 241.497H282.472V256.425H289.561V241.497Z" fill="#F5F5F5"/>
<path d="M289.561 271.706H282.472V286.634H289.561V271.706Z" fill="#F5F5F5"/>
<path d="M307.813 262.343C307.813 262.519 298.421 262.608 286.814 262.608C275.207 262.608 265.815 262.519 265.815 262.343C265.815 262.166 275.207 262.078 286.814 262.078C298.421 261.989 307.813 262.166 307.813 262.343Z" fill="#EBEBEB"/>
<path d="M247.208 121.367H240.119V136.295H247.208V121.367Z" fill="white"/>
<path d="M265.46 142.213C265.46 142.389 256.068 142.478 244.461 142.478C232.854 142.478 223.462 142.389 223.462 142.213C223.462 142.036 232.854 141.948 244.461 141.948C256.068 141.859 265.46 142.036 265.46 142.213Z" fill="#E0E0E0"/>
<path d="M247.208 151.487H240.119V166.415H247.208V151.487Z" fill="white"/>
<path d="M265.46 172.245C265.46 172.422 256.068 172.51 244.461 172.51C232.854 172.51 223.462 172.422 223.462 172.245C223.462 172.069 232.854 171.98 244.461 171.98C256.068 171.98 265.46 172.157 265.46 172.245Z" fill="#E0E0E0"/>
<path d="M247.208 181.608H240.119V196.536H247.208V181.608Z" fill="white"/>
<path d="M265.46 202.366C265.46 202.543 256.068 202.631 244.461 202.631C232.854 202.631 223.462 202.543 223.462 202.366C223.462 202.189 232.854 202.101 244.461 202.101C256.068 202.101 265.46 202.278 265.46 202.366Z" fill="#E0E0E0"/>
<path d="M247.208 211.729H240.119V226.657H247.208V211.729Z" fill="white"/>
<path d="M265.46 232.487C265.46 232.664 256.068 232.752 244.461 232.752C232.854 232.752 223.462 232.664 223.462 232.487C223.462 232.31 232.854 232.222 244.461 232.222C256.068 232.222 265.46 232.31 265.46 232.487Z" fill="#E0E0E0"/>
<path d="M247.208 241.85H240.119V256.778H247.208V241.85Z" fill="white"/>
<path d="M265.46 262.608C265.46 262.784 256.068 262.873 244.461 262.873C232.854 262.873 223.462 262.784 223.462 262.608C223.462 262.431 232.854 262.343 244.461 262.343C256.068 262.343 265.46 262.431 265.46 262.608Z" fill="#E0E0E0"/>
<path d="M247.208 271.971H240.119V286.899H247.208V271.971Z" fill="white"/>
<path d="M190.501 213.937H126.085V298.558H190.501V213.937Z" fill="#EBEBEB"/>
<path d="M190.501 213.937H160.286V298.558H190.501V213.937Z" fill="#E0E0E0"/>
<path d="M145.401 225.42H139.641V239.465H145.401V225.42Z" fill="#F5F5F5"/>
<path d="M145.401 280.274H139.641V294.318H145.401V280.274Z" fill="#F5F5F5"/>
<path d="M160.286 244.941C160.286 245.118 152.666 245.207 143.186 245.207C133.705 245.207 126.085 245.118 126.085 244.941C126.085 244.765 133.705 244.677 143.186 244.677C152.666 244.677 160.286 244.765 160.286 244.941Z" fill="#F5F5F5"/>
<path d="M145.401 253.068H139.641V267.113H145.401V253.068Z" fill="#F5F5F5"/>
<path d="M160.286 272.589C160.286 272.766 152.666 272.854 143.186 272.854C133.705 272.854 126.085 272.766 126.085 272.589C126.085 272.412 133.705 272.324 143.186 272.324C152.666 272.324 160.286 272.412 160.286 272.589Z" fill="#F5F5F5"/>
<path d="M172.425 225.42H166.666V239.465H172.425V225.42Z" fill="#F5F5F5"/>
<path d="M185.007 225.42H179.248V239.465H185.007V225.42Z" fill="#F5F5F5"/>
<path d="M172.425 252.008H166.666V266.053H172.425V252.008Z" fill="#F5F5F5"/>
<path d="M185.007 252.008H179.248V266.053H185.007V252.008Z" fill="#F5F5F5"/>
<path d="M172.425 278.596H166.666V292.64H172.425V278.596Z" fill="#F5F5F5"/>
<path d="M185.007 278.596H179.248V292.64H185.007V278.596Z" fill="#F5F5F5"/>
<path d="M195.374 211.022H121.3V214.114H195.374V211.022Z" fill="#E0E0E0"/>
<path d="M190.944 214.379C190.944 214.556 176.59 214.644 158.78 214.644C141.059 214.644 126.616 214.556 126.616 214.379C126.616 214.202 140.97 214.114 158.78 214.114C176.501 214.026 190.944 214.202 190.944 214.379Z" fill="#EBEBEB"/>
<path d="M327.661 109L384.722 109.265C384.722 109.265 379.318 96.899 367.799 96.899C359.027 96.899 358.584 102.375 353.356 103.877C348.129 105.379 336.876 95.9273 327.661 109Z" fill="#EBEBEB"/>
<path d="M81.4279 48.4053L181.729 48.847C181.729 48.847 172.248 27.2059 151.957 27.2059C136.452 27.2059 135.831 36.834 126.528 39.5722C117.224 42.2221 97.6426 25.4393 81.4279 48.4053Z" fill="#F5F5F5"/>
<path d="M282.561 15.9879L358.141 16.3412C358.141 16.3412 350.964 0 335.724 0C324.028 0 323.585 7.24313 316.585 9.27474C309.586 11.3947 294.789 -1.32496 282.561 15.9879Z" fill="#FAFAFA"/>
<path d="M416 298.293C416 298.382 322.876 298.558 207.956 298.558C93.1237 298.47 0 298.382 0 298.293C0 298.205 93.1237 298.028 208.044 298.028C322.876 298.028 416 298.117 416 298.293Z" fill="#263238"/>
<path d="M373.47 170.037H324.383V298.117H373.47V170.037Z" fill="#455A64"/>
<path d="M373.47 170.037H348.926V298.117H373.47V170.037Z" fill="#263238"/>
<path d="M347.331 154.844H329.965V170.037H347.331V154.844Z" fill="#455A64"/>
<path d="M347.331 154.844H343.167V170.037H347.331V154.844Z" fill="#263238"/>
<path d="M374.799 169.154H320.218V170.037H374.799V169.154Z" fill="#455A64"/>
<path d="M338.205 176.662H334.041V185.406H338.205V176.662Z" fill="#263238"/>
<path d="M348.926 188.851C348.926 188.94 343.433 189.028 336.61 189.028C329.787 189.028 324.294 188.94 324.294 188.851C324.294 188.763 329.787 188.675 336.61 188.675C343.433 188.675 348.926 188.763 348.926 188.851Z" fill="#263238"/>
<path d="M362.926 176.662H358.761V185.406H362.926V176.662Z" fill="#455A64"/>
<path d="M373.647 188.851C373.647 188.94 368.153 189.028 361.331 189.028C354.508 189.028 349.015 188.94 349.015 188.851C349.015 188.763 354.508 188.675 361.331 188.675C368.153 188.675 373.647 188.763 373.647 188.851Z" fill="#455A64"/>
<path d="M362.926 194.063H358.761V202.808H362.926V194.063Z" fill="#455A64"/>
<path d="M373.647 206.164C373.647 206.253 368.153 206.341 361.331 206.341C354.508 206.341 349.015 206.253 349.015 206.164C349.015 206.076 354.508 205.988 361.331 205.988C368.153 206.076 373.647 206.076 373.647 206.164Z" fill="#455A64"/>
<path d="M362.926 211.906H358.761V220.651H362.926V211.906Z" fill="#455A64"/>
<path d="M373.647 224.095C373.647 224.184 368.153 224.272 361.331 224.272C354.508 224.272 349.015 224.184 349.015 224.095C349.015 224.007 354.508 223.919 361.331 223.919C368.153 223.919 373.647 224.007 373.647 224.095Z" fill="#455A64"/>
<path d="M362.926 229.749H358.761V238.493H362.926V229.749Z" fill="#455A64"/>
<path d="M373.647 241.938C373.647 242.027 368.153 242.115 361.331 242.115C354.508 242.115 349.015 242.027 349.015 241.938C349.015 241.85 354.508 241.762 361.331 241.762C368.153 241.762 373.647 241.85 373.647 241.938Z" fill="#455A64"/>
<path d="M362.926 247.15H358.761V255.895H362.926V247.15Z" fill="#455A64"/>
<path d="M373.647 259.339C373.647 259.428 368.153 259.516 361.331 259.516C354.508 259.516 349.015 259.428 349.015 259.339C349.015 259.251 354.508 259.163 361.331 259.163C368.153 259.163 373.647 259.163 373.647 259.339Z" fill="#455A64"/>
<path d="M362.926 264.551H358.761V273.296H362.926V264.551Z" fill="#455A64"/>
<path d="M362.926 282.217H358.761V290.962H362.926V282.217Z" fill="#455A64"/>
<path d="M373.647 276.741C373.647 276.829 368.153 276.917 361.331 276.917C354.508 276.917 349.015 276.829 349.015 276.741C349.015 276.652 354.508 276.564 361.331 276.564C368.153 276.564 373.647 276.652 373.647 276.741Z" fill="#455A64"/>
<path d="M338.205 194.328H334.041V203.073H338.205V194.328Z" fill="#263238"/>
<path d="M348.926 206.429C348.926 206.518 343.433 206.606 336.61 206.606C329.787 206.606 324.294 206.518 324.294 206.429C324.294 206.341 329.787 206.253 336.61 206.253C343.433 206.341 348.926 206.341 348.926 206.429Z" fill="#263238"/>
<path d="M338.205 211.906H334.041V220.651H338.205V211.906Z" fill="#263238"/>
<path d="M348.926 224.095C348.926 224.184 343.433 224.272 336.61 224.272C329.787 224.272 324.294 224.184 324.294 224.095C324.294 224.007 329.787 223.919 336.61 223.919C343.433 223.919 348.926 224.007 348.926 224.095Z" fill="#263238"/>
<path d="M338.205 229.484H334.041V238.228H338.205V229.484Z" fill="#263238"/>
<path d="M348.926 241.673C348.926 241.762 343.433 241.85 336.61 241.85C329.787 241.85 324.294 241.762 324.294 241.673C324.294 241.585 329.787 241.497 336.61 241.497C343.433 241.497 348.926 241.585 348.926 241.673Z" fill="#263238"/>
<path d="M338.205 247.15H334.041V255.895H338.205V247.15Z" fill="#263238"/>
<path d="M348.926 259.339C348.926 259.428 343.433 259.516 336.61 259.516C329.787 259.516 324.294 259.428 324.294 259.339C324.294 259.251 329.787 259.163 336.61 259.163C343.433 259.163 348.926 259.163 348.926 259.339Z" fill="#263238"/>
<path d="M338.205 264.728H334.041V273.472H338.205V264.728Z" fill="#263238"/>
<path d="M348.926 276.917C348.926 277.006 343.433 277.094 336.61 277.094C329.787 277.094 324.294 277.006 324.294 276.917C324.294 276.829 329.787 276.741 336.61 276.741C343.433 276.741 348.926 276.829 348.926 276.917Z" fill="#263238"/>
<path d="M338.205 282.305H334.041V291.05H338.205V282.305Z" fill="#263238"/>
<path d="M250.486 124.282H184.83V298.205H250.486V124.282Z" fill="#455A64"/>
<path d="M250.486 124.282H225.322V298.205H250.486V124.282Z" fill="#263238"/>
<path d="M240.385 137.973H235.423V148.484H240.385V137.973Z" fill="#455A64"/>
<path d="M240.385 156.434H235.423V166.945H240.385V156.434Z" fill="#455A64"/>
<path d="M240.385 177.015H235.423V187.526H240.385V177.015Z" fill="#455A64"/>
<path d="M240.385 196.713H235.423V207.224H240.385V196.713Z" fill="#455A64"/>
<path d="M240.385 216.411H235.423V226.922H240.385V216.411Z" fill="#455A64"/>
<path d="M240.385 236.108H235.423V246.62H240.385V236.108Z" fill="#455A64"/>
<path d="M240.385 255.806H235.423V266.318H240.385V255.806Z" fill="#455A64"/>
<path d="M240.385 277.536H235.423V288.047H240.385V277.536Z" fill="#455A64"/>
<path d="M253.764 123.222H179.07V125.253H253.764V123.222Z" fill="#263238"/>
<path d="M237.904 110.944H211.323V124.193H237.904V110.944Z" fill="#263238"/>
<path d="M225.322 110.944H211.323V123.222H225.322V110.944Z" fill="#455A64"/>
<path d="M199.095 137.531H194.133V148.043H199.095V137.531Z" fill="#263238"/>
<path d="M212.386 137.531H207.424V148.043H212.386V137.531Z" fill="#263238"/>
<path d="M199.095 157.582H194.133V168.094H199.095V157.582Z" fill="#263238"/>
<path d="M212.386 157.582H207.424V168.094H212.386V157.582Z" fill="#263238"/>
<path d="M199.095 177.545H194.133V188.056H199.095V177.545Z" fill="#263238"/>
<path d="M212.386 177.545H207.424V188.056H212.386V177.545Z" fill="#263238"/>
<path d="M199.095 197.508H194.133V208.019H199.095V197.508Z" fill="#263238"/>
<path d="M212.386 197.508H207.424V208.019H212.386V197.508Z" fill="#263238"/>
<path d="M199.095 217.559H194.133V228.07H199.095V217.559Z" fill="#263238"/>
<path d="M212.386 217.559H207.424V228.07H212.386V217.559Z" fill="#263238"/>
<path d="M199.095 237.522H194.133V248.033H199.095V237.522Z" fill="#263238"/>
<path d="M212.386 237.522H207.424V248.033H212.386V237.522Z" fill="#263238"/>
<path d="M199.095 257.484H194.133V267.996H199.095V257.484Z" fill="#263238"/>
<path d="M212.386 257.484H207.424V267.996H212.386V257.484Z" fill="#263238"/>
<path d="M199.095 277.536H194.133V288.047H199.095V277.536Z" fill="#263238"/>
<path d="M212.386 277.536H207.424V288.047H212.386V277.536Z" fill="#263238"/>
<path d="M225.322 152.194C225.322 152.371 216.285 152.547 205.12 152.547C193.956 152.547 184.918 152.371 184.918 152.194C184.918 152.017 193.956 151.841 205.12 151.841C216.196 151.841 225.322 152.017 225.322 152.194Z" fill="#263238"/>
<path d="M225.322 172.245C225.322 172.422 216.285 172.599 205.12 172.599C193.956 172.599 184.918 172.422 184.918 172.245C184.918 172.069 193.956 171.892 205.12 171.892C216.196 171.892 225.322 172.069 225.322 172.245Z" fill="#263238"/>
<path d="M225.322 192.561C225.322 192.738 216.285 192.915 205.12 192.915C193.956 192.915 184.918 192.738 184.918 192.561C184.918 192.385 193.956 192.208 205.12 192.208C216.196 192.208 225.322 192.385 225.322 192.561Z" fill="#263238"/>
<path d="M225.322 212.701C225.322 212.877 216.285 213.054 205.12 213.054C193.956 213.054 184.918 212.877 184.918 212.701C184.918 212.524 193.956 212.347 205.12 212.347C216.196 212.436 225.322 212.524 225.322 212.701Z" fill="#263238"/>
<path d="M225.322 232.575C225.322 232.752 216.285 232.928 205.12 232.928C193.956 232.928 184.918 232.752 184.918 232.575C184.918 232.399 193.956 232.222 205.12 232.222C216.196 232.222 225.322 232.399 225.322 232.575Z" fill="#263238"/>
<path d="M225.322 251.92C225.322 252.096 216.285 252.273 205.12 252.273C193.956 252.273 184.918 252.096 184.918 251.92C184.918 251.743 193.956 251.566 205.12 251.566C216.196 251.566 225.322 251.743 225.322 251.92Z" fill="#263238"/>
<path d="M225.322 273.296C225.322 273.472 216.285 273.649 205.12 273.649C193.956 273.649 184.918 273.472 184.918 273.296C184.918 273.119 193.956 272.942 205.12 272.942C216.196 273.031 225.322 273.119 225.322 273.296Z" fill="#263238"/>
<path d="M250.22 152.194C250.22 152.371 244.815 152.547 238.17 152.547C231.525 152.547 226.12 152.371 226.12 152.194C226.12 152.017 231.525 151.841 238.17 151.841C244.815 151.841 250.22 152.017 250.22 152.194Z" fill="#455A64"/>
<path d="M250.22 172.245C250.22 172.422 244.815 172.599 238.17 172.599C231.525 172.599 226.12 172.422 226.12 172.245C226.12 172.069 231.525 171.892 238.17 171.892C244.815 171.892 250.22 172.069 250.22 172.245Z" fill="#455A64"/>
<path d="M250.22 192.296C250.22 192.473 244.815 192.65 238.17 192.65C231.525 192.65 226.12 192.473 226.12 192.296C226.12 192.12 231.525 191.943 238.17 191.943C244.815 192.031 250.22 192.12 250.22 192.296Z" fill="#455A64"/>
<path d="M249.954 212.701C249.954 212.877 244.55 213.054 237.904 213.054C231.259 213.054 225.854 212.877 225.854 212.701C225.854 212.524 231.259 212.347 237.904 212.347C244.55 212.436 249.954 212.524 249.954 212.701Z" fill="#455A64"/>
<path d="M249.954 232.575C249.954 232.752 244.55 232.928 237.904 232.928C231.259 232.928 225.854 232.752 225.854 232.575C225.854 232.399 231.259 232.222 237.904 232.222C244.55 232.222 249.954 232.399 249.954 232.575Z" fill="#455A64"/>
<path d="M249.954 252.45C249.954 252.626 244.55 252.803 237.904 252.803C231.259 252.803 225.854 252.626 225.854 252.45C225.854 252.273 231.259 252.096 237.904 252.096C244.55 252.096 249.954 252.273 249.954 252.45Z" fill="#455A64"/>
<path d="M249.954 273.296C249.954 273.472 244.55 273.649 237.904 273.649C231.259 273.649 225.854 273.472 225.854 273.296C225.854 273.119 231.259 272.942 237.904 272.942C244.55 273.031 249.954 273.119 249.954 273.296Z" fill="#455A64"/>
<path d="M285.839 285.22C285.751 285.22 285.839 284.867 285.396 284.602C285.219 284.514 284.953 284.425 284.688 284.514C284.422 284.602 284.245 284.867 284.245 285.22C284.245 285.574 284.422 285.839 284.688 285.927C284.953 286.015 285.219 285.927 285.396 285.839C285.839 285.574 285.839 285.22 285.839 285.22C285.839 285.22 286.017 285.574 285.574 286.015C285.396 286.192 285.042 286.28 284.688 286.192C284.333 286.104 283.979 285.662 283.979 285.22C283.979 284.779 284.333 284.425 284.688 284.249C285.042 284.16 285.396 284.249 285.574 284.425C286.017 284.867 285.928 285.309 285.839 285.22Z" fill="#263238"/>
</g>
</svg>
