<svg width="194" height="55" viewBox="0 0 194 55" fill="none" xmlns="http://www.w3.org/2000/svg">
<rect width="194" height="55" rx="4" fill="#3A5998"/>
<path d="M69.386 35V22.184H77.756V24.038H71.69V27.548H77.396V29.42H71.69V35H69.386ZM88.043 25.91V35H85.829V33.542C85.553 34.046 85.157 34.442 84.641 34.73C84.125 35.006 83.537 35.144 82.877 35.144C82.085 35.144 81.383 34.952 80.771 34.568C80.159 34.184 79.685 33.638 79.349 32.93C79.013 32.222 78.845 31.4 78.845 30.464C78.845 29.528 79.013 28.7 79.349 27.98C79.697 27.248 80.177 26.684 80.789 26.288C81.401 25.88 82.097 25.676 82.877 25.676C83.537 25.676 84.125 25.82 84.641 26.108C85.157 26.384 85.553 26.774 85.829 27.278V25.91H88.043ZM83.489 33.38C84.233 33.38 84.809 33.122 85.217 32.606C85.625 32.09 85.829 31.364 85.829 30.428C85.829 29.468 85.625 28.73 85.217 28.214C84.809 27.698 84.227 27.44 83.471 27.44C82.727 27.44 82.145 27.71 81.725 28.25C81.317 28.778 81.113 29.516 81.113 30.464C81.113 31.4 81.317 32.12 81.725 32.624C82.145 33.128 82.733 33.38 83.489 33.38ZM94.6155 35.144C93.6675 35.144 92.8455 34.952 92.1495 34.568C91.4535 34.184 90.9195 33.644 90.5475 32.948C90.1755 32.24 89.9895 31.412 89.9895 30.464C89.9895 29.516 90.1815 28.682 90.5655 27.962C90.9615 27.242 91.5135 26.684 92.2215 26.288C92.9415 25.88 93.7695 25.676 94.7055 25.676C95.3535 25.676 95.9775 25.778 96.5775 25.982C97.1895 26.186 97.6755 26.468 98.0355 26.828L97.4055 28.412C97.0215 28.1 96.6135 27.866 96.1815 27.71C95.7495 27.542 95.3235 27.458 94.9035 27.458C94.0875 27.458 93.4515 27.716 92.9955 28.232C92.5395 28.736 92.3115 29.468 92.3115 30.428C92.3115 31.388 92.5335 32.12 92.9775 32.624C93.4335 33.128 94.0755 33.38 94.9035 33.38C95.3235 33.38 95.7495 33.296 96.1815 33.128C96.6135 32.96 97.0215 32.72 97.4055 32.408L98.0355 33.992C97.6515 34.352 97.1535 34.634 96.5415 34.838C95.9295 35.042 95.2875 35.144 94.6155 35.144ZM107.502 30.572H101.238C101.286 31.544 101.526 32.264 101.958 32.732C102.402 33.188 103.056 33.416 103.92 33.416C104.916 33.416 105.84 33.092 106.692 32.444L107.34 33.992C106.908 34.34 106.374 34.622 105.738 34.838C105.114 35.042 104.478 35.144 103.83 35.144C102.342 35.144 101.172 34.724 100.32 33.884C99.4683 33.044 99.0423 31.892 99.0423 30.428C99.0423 29.504 99.2283 28.682 99.6003 27.962C99.9723 27.242 100.494 26.684 101.166 26.288C101.838 25.88 102.6 25.676 103.452 25.676C104.7 25.676 105.684 26.084 106.404 26.9C107.136 27.704 107.502 28.814 107.502 30.23V30.572ZM103.506 27.296C102.906 27.296 102.414 27.476 102.03 27.836C101.658 28.184 101.418 28.694 101.31 29.366H105.54C105.468 28.682 105.258 28.166 104.91 27.818C104.574 27.47 104.106 27.296 103.506 27.296ZM114.592 25.676C115.384 25.676 116.08 25.874 116.68 26.27C117.292 26.654 117.766 27.2 118.102 27.908C118.438 28.616 118.606 29.438 118.606 30.374C118.606 31.31 118.432 32.144 118.084 32.876C117.748 33.596 117.274 34.154 116.662 34.55C116.062 34.946 115.372 35.144 114.592 35.144C113.92 35.144 113.32 35 112.792 34.712C112.276 34.424 111.886 34.022 111.622 33.506V35H109.408V21.752H111.64V27.278C111.916 26.774 112.312 26.384 112.828 26.108C113.344 25.82 113.932 25.676 114.592 25.676ZM113.998 33.38C114.742 33.38 115.318 33.116 115.726 32.588C116.134 32.06 116.338 31.322 116.338 30.374C116.338 29.438 116.134 28.718 115.726 28.214C115.318 27.698 114.736 27.44 113.98 27.44C113.224 27.44 112.642 27.698 112.234 28.214C111.826 28.73 111.622 29.462 111.622 30.41C111.622 31.37 111.826 32.108 112.234 32.624C112.642 33.128 113.23 33.38 113.998 33.38ZM124.692 35.144C123.768 35.144 122.952 34.952 122.244 34.568C121.548 34.184 121.008 33.638 120.624 32.93C120.252 32.21 120.066 31.37 120.066 30.41C120.066 29.45 120.252 28.616 120.624 27.908C121.008 27.188 121.548 26.636 122.244 26.252C122.952 25.868 123.768 25.676 124.692 25.676C125.604 25.676 126.408 25.868 127.104 26.252C127.8 26.636 128.334 27.188 128.706 27.908C129.09 28.616 129.282 29.45 129.282 30.41C129.282 31.37 129.09 32.21 128.706 32.93C128.334 33.638 127.8 34.184 127.104 34.568C126.408 34.952 125.604 35.144 124.692 35.144ZM124.674 33.38C125.442 33.38 126.024 33.134 126.42 32.642C126.828 32.138 127.032 31.394 127.032 30.41C127.032 29.438 126.828 28.7 126.42 28.196C126.012 27.68 125.436 27.422 124.692 27.422C123.936 27.422 123.354 27.68 122.946 28.196C122.538 28.7 122.334 29.438 122.334 30.41C122.334 31.394 122.532 32.138 122.928 32.642C123.336 33.134 123.918 33.38 124.674 33.38ZM135.344 35.144C134.42 35.144 133.604 34.952 132.896 34.568C132.2 34.184 131.66 33.638 131.276 32.93C130.904 32.21 130.718 31.37 130.718 30.41C130.718 29.45 130.904 28.616 131.276 27.908C131.66 27.188 132.2 26.636 132.896 26.252C133.604 25.868 134.42 25.676 135.344 25.676C136.256 25.676 137.06 25.868 137.756 26.252C138.452 26.636 138.986 27.188 139.358 27.908C139.742 28.616 139.934 29.45 139.934 30.41C139.934 31.37 139.742 32.21 139.358 32.93C138.986 33.638 138.452 34.184 137.756 34.568C137.06 34.952 136.256 35.144 135.344 35.144ZM135.326 33.38C136.094 33.38 136.676 33.134 137.072 32.642C137.48 32.138 137.684 31.394 137.684 30.41C137.684 29.438 137.48 28.7 137.072 28.196C136.664 27.68 136.088 27.422 135.344 27.422C134.588 27.422 134.006 27.68 133.598 28.196C133.19 28.7 132.986 29.438 132.986 30.41C132.986 31.394 133.184 32.138 133.58 32.642C133.988 33.134 134.57 33.38 135.326 33.38ZM150.892 35H148.084L144.106 30.806V35H141.874V21.752H144.106V29.924L147.85 25.928H150.568L146.482 30.266L150.892 35Z" fill="white"/>
<path fill-rule="evenodd" clip-rule="evenodd" d="M50.7877 40V29.9823H54.3631L54.8736 26.0729H50.7877V23.6305C50.7877 22.531 51.1702 21.6766 52.8298 21.6766H55V18.1332C54.4911 18.1332 53.214 18.0106 51.8104 18.0106C51.0995 17.9648 50.3867 18.0672 49.7211 18.3106C49.0556 18.5541 48.4532 18.9328 47.9554 19.4206C47.4577 19.9085 47.0766 20.4938 46.8383 21.1363C46.6001 21.7788 46.5104 22.4631 46.5754 23.142V26.0729H43V29.9823H46.5754V40H50.7877Z" fill="white"/>
</svg>
