<svg width="194" height="55" viewBox="0 0 194 55" fill="none" xmlns="http://www.w3.org/2000/svg">
<rect x="1" y="1" width="192" height="53" rx="3" stroke="#F2F2F2" stroke-width="2"/>
<g clip-path="url(#clip0_63_822)">
<path d="M49.4324 31.0862L48.7362 33.6851L46.1918 33.739C45.4313 32.3285 45 30.7148 45 29C45 27.3417 45.4033 25.778 46.1181 24.4011H46.1187L48.384 24.8164L49.3763 27.0681C49.1686 27.6736 49.0554 28.3236 49.0554 29C49.0555 29.734 49.1885 30.4374 49.4324 31.0862Z" fill="#FBBB00"/>
<path d="M64.8253 27.1318C64.9401 27.7368 65 28.3615 65 29C65 29.7159 64.9247 30.4143 64.7813 31.0879C64.2945 33.3802 63.0225 35.3818 61.2605 36.7983L61.2599 36.7978L58.4066 36.6522L58.0028 34.1313C59.172 33.4456 60.0858 32.3725 60.5671 31.0879H55.2198V27.1318H60.6451H64.8253Z" fill="#518EF8"/>
<path d="M61.2599 36.7978L61.2604 36.7984C59.5467 38.1758 57.3698 39 55 39C51.1918 39 47.8808 36.8715 46.1918 33.739L49.4324 31.0863C50.2769 33.3401 52.4511 34.9445 55 34.9445C56.0956 34.9445 57.122 34.6484 58.0027 34.1313L61.2599 36.7978Z" fill="#28B446"/>
<path d="M61.383 21.3022L58.1434 23.9544C57.2319 23.3846 56.1544 23.0555 55 23.0555C52.3934 23.0555 50.1786 24.7335 49.3764 27.0681L46.1187 24.4011H46.1182C47.7825 21.1923 51.1352 19 55 19C57.4264 19 59.6511 19.8643 61.383 21.3022Z" fill="#F14336"/>
</g>
<path d="M100.078 28.07V34.226C99.49 34.514 98.782 34.742 97.954 34.91C97.126 35.078 96.28 35.162 95.416 35.162C94.096 35.162 92.95 34.898 91.978 34.37C91.006 33.842 90.262 33.086 89.746 32.102C89.23 31.118 88.972 29.942 88.972 28.574C88.972 27.23 89.23 26.066 89.746 25.082C90.262 24.098 90.994 23.342 91.942 22.814C92.902 22.286 94.024 22.022 95.308 22.022C96.208 22.022 97.048 22.154 97.828 22.418C98.62 22.682 99.28 23.054 99.808 23.534L99.016 25.226C98.416 24.758 97.828 24.422 97.252 24.218C96.676 24.014 96.046 23.912 95.362 23.912C94.042 23.912 93.04 24.308 92.356 25.1C91.684 25.892 91.348 27.05 91.348 28.574C91.348 30.146 91.696 31.334 92.392 32.138C93.088 32.93 94.126 33.326 95.506 33.326C96.346 33.326 97.174 33.212 97.99 32.984V29.744H95.218V28.07H100.078ZM106.653 35.144C105.729 35.144 104.913 34.952 104.205 34.568C103.509 34.184 102.969 33.638 102.585 32.93C102.213 32.21 102.027 31.37 102.027 30.41C102.027 29.45 102.213 28.616 102.585 27.908C102.969 27.188 103.509 26.636 104.205 26.252C104.913 25.868 105.729 25.676 106.653 25.676C107.565 25.676 108.369 25.868 109.065 26.252C109.761 26.636 110.295 27.188 110.667 27.908C111.051 28.616 111.243 29.45 111.243 30.41C111.243 31.37 111.051 32.21 110.667 32.93C110.295 33.638 109.761 34.184 109.065 34.568C108.369 34.952 107.565 35.144 106.653 35.144ZM106.635 33.38C107.403 33.38 107.985 33.134 108.381 32.642C108.789 32.138 108.993 31.394 108.993 30.41C108.993 29.438 108.789 28.7 108.381 28.196C107.973 27.68 107.397 27.422 106.653 27.422C105.897 27.422 105.315 27.68 104.907 28.196C104.499 28.7 104.295 29.438 104.295 30.41C104.295 31.394 104.493 32.138 104.889 32.642C105.297 33.134 105.879 33.38 106.635 33.38ZM117.305 35.144C116.381 35.144 115.565 34.952 114.857 34.568C114.161 34.184 113.621 33.638 113.237 32.93C112.865 32.21 112.679 31.37 112.679 30.41C112.679 29.45 112.865 28.616 113.237 27.908C113.621 27.188 114.161 26.636 114.857 26.252C115.565 25.868 116.381 25.676 117.305 25.676C118.217 25.676 119.021 25.868 119.717 26.252C120.413 26.636 120.947 27.188 121.319 27.908C121.703 28.616 121.895 29.45 121.895 30.41C121.895 31.37 121.703 32.21 121.319 32.93C120.947 33.638 120.413 34.184 119.717 34.568C119.021 34.952 118.217 35.144 117.305 35.144ZM117.287 33.38C118.055 33.38 118.637 33.134 119.033 32.642C119.441 32.138 119.645 31.394 119.645 30.41C119.645 29.438 119.441 28.7 119.033 28.196C118.625 27.68 118.049 27.422 117.305 27.422C116.549 27.422 115.967 27.68 115.559 28.196C115.151 28.7 114.947 29.438 114.947 30.41C114.947 31.394 115.145 32.138 115.541 32.642C115.949 33.134 116.531 33.38 117.287 33.38ZM132.619 25.91V34.712C132.619 36.128 132.229 37.202 131.449 37.934C130.669 38.666 129.523 39.032 128.011 39.032C126.607 39.032 125.371 38.738 124.303 38.15L124.663 36.44C125.767 37.016 126.865 37.304 127.957 37.304C129.577 37.304 130.387 36.5 130.387 34.892V33.092C130.111 33.584 129.709 33.986 129.181 34.298C128.653 34.598 128.059 34.748 127.399 34.748C126.607 34.748 125.899 34.562 125.275 34.19C124.663 33.806 124.183 33.272 123.835 32.588C123.499 31.892 123.331 31.1 123.331 30.212C123.331 29.324 123.499 28.538 123.835 27.854C124.183 27.158 124.663 26.624 125.275 26.252C125.899 25.868 126.607 25.676 127.399 25.676C128.071 25.676 128.665 25.82 129.181 26.108C129.709 26.384 130.111 26.774 130.387 27.278V25.91H132.619ZM127.993 32.984C128.737 32.984 129.319 32.738 129.739 32.246C130.171 31.754 130.387 31.076 130.387 30.212C130.387 29.348 130.177 28.67 129.757 28.178C129.337 27.686 128.749 27.44 127.993 27.44C127.249 27.44 126.661 27.686 126.229 28.178C125.809 28.67 125.599 29.348 125.599 30.212C125.599 31.076 125.809 31.754 126.229 32.246C126.661 32.738 127.249 32.984 127.993 32.984ZM135.05 35V21.752H137.282V35H135.05ZM147.7 30.572H141.436C141.484 31.544 141.724 32.264 142.156 32.732C142.6 33.188 143.254 33.416 144.118 33.416C145.114 33.416 146.038 33.092 146.89 32.444L147.538 33.992C147.106 34.34 146.572 34.622 145.936 34.838C145.312 35.042 144.676 35.144 144.028 35.144C142.54 35.144 141.37 34.724 140.518 33.884C139.666 33.044 139.24 31.892 139.24 30.428C139.24 29.504 139.426 28.682 139.798 27.962C140.17 27.242 140.692 26.684 141.364 26.288C142.036 25.88 142.798 25.676 143.65 25.676C144.898 25.676 145.882 26.084 146.602 26.9C147.334 27.704 147.7 28.814 147.7 30.23V30.572ZM143.704 27.296C143.104 27.296 142.612 27.476 142.228 27.836C141.856 28.184 141.616 28.694 141.508 29.366H145.738C145.666 28.682 145.456 28.166 145.108 27.818C144.772 27.47 144.304 27.296 143.704 27.296Z" fill="#4F4F4F"/>
<defs>
<clipPath id="clip0_63_822">
<rect width="20" height="20" fill="white" transform="translate(45 19)"/>
</clipPath>
</defs>
</svg>
