<svg width="102" height="46" viewBox="0 0 102 46" fill="none" xmlns="http://www.w3.org/2000/svg">
<path d="M50.728 32V15.08H54.472V22.448H54.52L61.456 15.08H65.896L57.376 23.936L57.4 22.4L66.424 32H61.84L54.52 24.272H54.472V32H50.728ZM71.0993 32.264C69.5793 32.264 68.4513 31.848 67.7153 31.016C66.9793 30.168 66.6113 28.888 66.6113 27.176V19.832H70.2353V27.176C70.2353 27.944 70.3873 28.512 70.6913 28.88C71.0113 29.248 71.4993 29.432 72.1553 29.432C72.8753 29.432 73.4673 29.184 73.9313 28.688C74.4113 28.176 74.6513 27.496 74.6513 26.648V19.832H78.2753V32H74.7473V29.672H75.0833C74.7153 30.488 74.1873 31.128 73.4993 31.592C72.8273 32.04 72.0273 32.264 71.0993 32.264ZM81.2614 32V19.832H84.8854V32H81.2614ZM81.1174 17.84V14.456H85.0054V17.84H81.1174ZM96.4154 37.184V29.72H96.7034C96.4474 30.488 95.9354 31.104 95.1674 31.568C94.3994 32.032 93.5354 32.264 92.5754 32.264C91.5194 32.264 90.5914 32.008 89.7914 31.496C88.9914 30.984 88.3674 30.256 87.9194 29.312C87.4714 28.368 87.2474 27.232 87.2474 25.904C87.2474 24.592 87.4714 23.464 87.9194 22.52C88.3674 21.576 88.9914 20.856 89.7914 20.36C90.5914 19.848 91.5194 19.592 92.5754 19.592C93.5514 19.592 94.4234 19.832 95.1914 20.312C95.9754 20.776 96.4874 21.408 96.7274 22.208H96.4634L96.7514 19.832H100.231C100.183 20.36 100.135 20.896 100.087 21.44C100.055 21.968 100.039 22.488 100.039 23V37.184H96.4154ZM93.6794 29.528C94.5114 29.528 95.1834 29.232 95.6954 28.64C96.2074 28.048 96.4634 27.136 96.4634 25.904C96.4634 24.672 96.2074 23.768 95.6954 23.192C95.1834 22.616 94.5114 22.328 93.6794 22.328C92.8474 22.328 92.1754 22.616 91.6634 23.192C91.1514 23.768 90.8954 24.672 90.8954 25.904C90.8954 27.136 91.1434 28.048 91.6394 28.64C92.1514 29.232 92.8314 29.528 93.6794 29.528Z" fill="#27AE60"/>
<circle cx="23" cy="23" r="23" fill="#27AE60"/>
<path d="M16.9097 31.1379V14.2179H20.6537V21.5859H20.7017L27.6377 14.2179H32.0777L23.5577 23.0739L23.5817 21.5379L32.6057 31.1379H28.0217L20.7017 23.4099H20.6537V31.1379H16.9097Z" fill="white"/>
</svg>
