<svg width="194" height="55" viewBox="0 0 194 55" fill="none" xmlns="http://www.w3.org/2000/svg">
<rect width="194" height="55" rx="4" fill="#55ACEE"/>
<path d="M52.525 37C50.4625 37 48.3207 36.4386 46.4169 35.3158C46.0995 35.1554 45.9409 34.7544 46.0202 34.4336C46.0995 34.1128 46.4169 33.8722 46.7342 33.8722C48.0827 33.9524 49.4313 33.6316 50.6212 33.0702C47.6861 31.2256 46.8928 28.6591 46.8135 26.6541C46.7342 24.3283 47.5274 22.4035 47.6068 22.3233C47.6861 22.0827 47.9241 21.8421 48.2414 21.8421C48.5587 21.8421 48.7967 21.9223 48.9553 22.1629C50.3039 24.0877 52.3664 25.2907 54.6669 25.4511C54.6669 24.1679 55.2221 22.9649 56.1741 22.0827C57.8399 20.6391 60.2991 20.6391 61.9649 22.0827C62.5996 21.8421 63.2342 21.5213 63.7895 21.1203C64.0274 20.9599 64.4241 20.9599 64.6621 21.1203C64.9 21.2807 65.0587 21.6817 64.9794 22.0025C64.7414 23.1253 64.1861 24.1679 63.3928 25.0501C63.3928 25.2105 63.3928 25.2907 63.3928 25.4511C63.3928 29.8622 61.489 33.5514 58.0779 35.4762C56.4121 36.5188 54.5082 37 52.525 37Z" fill="white"/>
<path d="M91.392 35V24.092H87.216V22.184H97.926V24.092H93.732V35H91.392ZM110.238 25.91H112.434L108.87 35H106.908L104.658 29.042L102.462 35H100.482L96.9183 25.91H99.2223L101.562 32.318L103.92 25.91H105.54L107.898 32.372L110.238 25.91ZM113.853 35V25.91H116.085V35H113.853ZM113.709 21.788H116.211V24.002H113.709V21.788ZM121.408 27.602V31.67C121.408 32.738 121.906 33.272 122.902 33.272C123.178 33.272 123.478 33.224 123.802 33.128V34.91C123.406 35.054 122.926 35.126 122.362 35.126C121.33 35.126 120.538 34.838 119.986 34.262C119.434 33.686 119.158 32.858 119.158 31.778V27.602H117.412V25.91H119.158V23.696L121.408 22.94V25.91H123.82V27.602H121.408ZM128.106 27.602V31.67C128.106 32.738 128.604 33.272 129.6 33.272C129.876 33.272 130.176 33.224 130.5 33.128V34.91C130.104 35.054 129.624 35.126 129.06 35.126C128.028 35.126 127.236 34.838 126.684 34.262C126.132 33.686 125.856 32.858 125.856 31.778V27.602H124.11V25.91H125.856V23.696L128.106 22.94V25.91H130.518V27.602H128.106ZM140.02 30.572H133.756C133.804 31.544 134.044 32.264 134.476 32.732C134.92 33.188 135.574 33.416 136.438 33.416C137.434 33.416 138.358 33.092 139.21 32.444L139.858 33.992C139.426 34.34 138.892 34.622 138.256 34.838C137.632 35.042 136.996 35.144 136.348 35.144C134.86 35.144 133.69 34.724 132.838 33.884C131.986 33.044 131.56 31.892 131.56 30.428C131.56 29.504 131.746 28.682 132.118 27.962C132.49 27.242 133.012 26.684 133.684 26.288C134.356 25.88 135.118 25.676 135.97 25.676C137.218 25.676 138.202 26.084 138.922 26.9C139.654 27.704 140.02 28.814 140.02 30.23V30.572ZM136.024 27.296C135.424 27.296 134.932 27.476 134.548 27.836C134.176 28.184 133.936 28.694 133.828 29.366H138.058C137.986 28.682 137.776 28.166 137.428 27.818C137.092 27.47 136.624 27.296 136.024 27.296ZM146.821 25.694C147.169 25.694 147.469 25.742 147.721 25.838L147.703 27.89C147.319 27.734 146.923 27.656 146.515 27.656C145.747 27.656 145.159 27.878 144.751 28.322C144.355 28.766 144.157 29.354 144.157 30.086V35H141.925V28.484C141.925 27.524 141.877 26.666 141.781 25.91H143.887L144.067 27.512C144.295 26.924 144.655 26.474 145.147 26.162C145.639 25.85 146.197 25.694 146.821 25.694Z" fill="white"/>
</svg>
